<?xml version="1.0" encoding="UTF-8" standalone="no"?>
<svg width="130px" height="186px" viewBox="0 0 130 186" version="1.1" xmlns="http://www.w3.org/2000/svg" xmlns:xlink="http://www.w3.org/1999/xlink">
    <!-- Generator: Sketch 3.8.1 (29687) - http://www.bohemiancoding.com/sketch -->
    <title>Group</title>
    <desc>Created with Sketch.</desc>
    <defs></defs>
    <g id="Page-1" stroke="none" stroke-width="1" fill="none" fill-rule="evenodd">
        <g id="Group">
            <path d="M110.8,19.8 L110.8,19.8 C85.7,-5.3 44.9,-5.3 19.8,19.8 L19.8,19.8 L19.8,19.8 C-2.9,42.5 -5.3,85.3 13.8,110.8 L65.1,185.2 L116.4,110.8 C136,85.4 133.6,42.5 110.8,19.8 L110.8,19.8 Z M65.9,86.1 C54.2,86.1 44.7,76.6 44.7,64.9 C44.7,53.2 54.2,43.7 65.9,43.7 C77.6,43.7 87.1,53.2 87.1,64.9 C87.1,76.6 77.6,86.1 65.9,86.1 L65.9,86.1 Z" id="Shape" fill="#E35958"></path>
            <path d="M65.5,104.5 C85.4,104.5 101.6,88.3 101.6,68.4 C101.6,48.5 85.4,32.3 65.5,32.3 C45.6,32.3 29.4,48.5 29.4,68.4 L29.4,68.8 C29.7,88.5 45.7,104.4 65.5,104.5 L65.5,104.5 Z" id="Shape" fill="#333333"></path>
            <path d="M65.5,50.7 C83.1,50.7 97.4,65 97.4,82.6 L97.4,82.6 L97.4,85.8 C91.1,97.6 78.9,104.9 65.5,104.9 C52.2,104.8 40,97.5 33.6,85.8 L33.6,82.6 C33.6,64.9 47.9,50.7 65.5,50.7 L65.5,50.7 Z" id="Shape" fill="#1F535A"></path>
            <path d="M85.7,57.4 C91.9,62.2 95.9,69.2 97,76.9 C96.8,76.7 96.7,76.5 96.6,76.2 C96.2,76.5 95.7,76.6 95.2,76.6 L95.2,76.6 C94.8,77 95.2,77 94.8,77.3 C94.4,77.7 93.7,78.4 93,79.1 L93,80.9 C93,81.3 92.6,82 92.3,82 C92,81.4 91.8,80.8 91.6,80.2 C91.2,79.5 91.2,79.1 90.9,78.4 C91,77.9 90.8,77.4 90.5,77 C90.1,77 90.1,77.4 89.8,77 C89.4,76.6 89.8,76.6 89.4,76.3 L88.3,75.2 L86.5,75.2 C85.8,75.2 85.8,75.2 85.1,74.5 C84.4,74.5 84.4,74.9 83.3,74.1 C82.2,73.3 82.9,73 82.2,73.4 C82.2,74.1 82.6,74.1 82.9,74.5 L83.6,75.2 L83.6,75.6 C84.2,75.6 84.7,75.3 85,74.9 C85.4,75.3 85,75.3 85.7,75.6 C86.4,76 86.1,75.6 86.4,76 C86.1,76.8 85.6,77.5 85,78.1 C84.6,78.5 84.6,78.1 84.3,78.5 C83.9,78.9 84.3,78.9 83.6,79.2 C82.8,79.6 82,80 81.1,80.3 C81.1,79.9 80.7,79.2 80.7,78.9 C80.3,77.1 80.3,77.8 79.6,77.1 C78.9,76.4 79.6,76.4 79.2,76 C78.8,75.6 78.8,75.6 78.8,75.3 C78.8,74.9 78.4,74.2 77.7,74.2 C77.7,74.6 78.1,76 78.4,76 C78.8,76 78.8,76.4 78.8,76.7 C78.8,77.1 78.8,77.1 79.2,77.8 C79.6,78.5 79.2,78.5 80.3,79.2 C80.9,79.6 81.2,80.3 81.4,81 C81.8,81 83.5,80.3 83.9,80.6 C84.3,81 83.5,82 83.2,82.7 C82.5,84.5 81.8,84.5 80.7,85.5 C80.3,86.2 80,86.2 79.6,86.9 C79.2,87.6 80.7,90.4 79.6,91.5 C79.6,91.9 78.9,91.9 78.2,92.6 C77.5,93.3 78.2,93.3 77.8,94.7 L77.1,95.4 C77.1,95.8 77,96.2 76.7,96.5 C76.3,96.9 76.3,96.9 76.3,97.2 C76.3,97.6 76.3,97.6 75.9,97.9 L75.5,98.3 C74.6,98.8 73.7,99 72.7,99 C72.3,98.6 72.7,98.6 72.3,97.9 C71.9,97.2 71.9,97.2 71.6,96.8 L71.6,96.8 C71.6,96.6 71.4,96.4 71.2,96.4 L71.2,96.4 C70.8,95.3 70.8,94.3 70.5,93.2 C70.1,92.1 70.9,90.7 70.9,90 L70.9,89.3 C70.9,88.4 70.6,87.6 70.2,86.8 C69.5,86.1 69.5,86.4 69.8,85 C70.2,83.6 69.4,83.9 68.4,83.9 C68,82.5 67,83.2 66.3,83.5 C65.6,83.9 65.6,83.5 64.9,83.5 C63.5,83.9 64.5,84.2 62.8,82.8 C62.1,82.1 62.4,82.4 62.1,81.7 C61.7,81 61.4,81 61.4,80.6 C60.7,79.9 61.4,78.8 61.4,77.8 C61,76 61,77.4 62.1,75.3 C62.8,74.2 63.5,74.2 63.9,73.5 C64.3,72.8 63.9,72.8 64.3,72.1 C64.7,71.4 65,71.7 65.4,71.4 C65.8,71.1 65,70.7 64.7,70.7 C64.3,70 64.3,70 64.7,69.6 L64.7,68.5 C65.1,67.4 66.5,68.5 66.8,68.1 C67.1,67.9 67.1,67.4 66.9,67.2 L66.8,67.1 C66.4,66.7 66.1,66.7 66.1,66.4 C66.1,66 66.1,66.4 66.5,66.4 C66.9,66.4 66.9,66 67.2,66 C67.6,66 67.9,65.6 68.3,65.3 C68.7,64.9 68.7,64.6 69.4,64.6 C70.1,64.6 69.8,64.6 69.8,63.5 C70,63.5 70.2,63.3 70.2,63.1 L70.2,63.1 C70.6,63.5 70.2,63.5 70.6,63.8 C70.8,63.8 71,63.6 71,63.4 L71,63.4 C71,63 70.6,63 70.6,62.3 C69.9,62.3 69.9,63 69.5,62.7 C69.1,62.3 69.1,62 69.1,61.3 C69.1,60.6 70.2,60.6 70.5,60.6 C70.9,60.6 70.9,60.2 71.6,59.5 C72.3,58.8 71.6,59.5 72,58.8 C72.7,58.8 72.4,58.8 72.7,58.4 L72.7,58.4 C73.1,58.4 73.4,58.4 73.4,58 C74.2,57.6 75.1,57.6 75.9,58 C76.6,58.4 78.4,58.4 78.7,59.1 C78.3,59.5 77.6,59.1 77.3,59.1 C77.3,59.8 77.3,59.8 78,59.8 L78,59.4 L79,59.4 C79.4,58.7 79.4,58.7 80.1,58.7 C80.1,58.3 79.7,58.3 80.1,58 C80.5,57.6 80.1,58 80.5,58.4 C80.9,58.8 81.6,57.7 81.9,57.7 L83,57.7 C83.4,57.7 83.4,57.3 83.7,57.7 C83.7,57.3 83.7,57.3 84.1,57.3 C84.5,57.3 85.2,57.7 85.9,57.7 C85.5,57 85.2,57.3 85.5,56.3 C85,57 85,57.4 85.7,57.4 C85.3,57.7 85.3,57.4 85.7,57.4 L85.7,57.4 Z M51.4,101.6 L51.4,101.6 C50.3,101.2 49.3,100.5 48.2,100.2 L48.2,100.2 C48.2,99.1 48.6,99.1 47.8,97.7 C47.1,96.3 47.8,94.2 47.4,93.1 L47.4,92.7 C47,92.3 46.3,92 46,91.6 L46,91.6 C45.3,91.2 44.6,89.1 43.9,88.4 L43.2,87.7 C43.2,87 43.2,87.3 43.6,87 C42.5,85.2 44.7,85.2 44.3,83.5 C44.3,83.1 43.9,82.8 43.6,82.4 C43.2,82.8 43.2,82.8 43.2,83.1 C42.8,82.7 42.5,82.7 42.1,82.4 C41,81.3 41.7,82 41.4,81.3 C40.7,79.9 40.3,80.6 39.3,79.9 C38.9,79.5 38.9,79.2 38.2,79.2 C37.5,79.2 37.8,79.6 36.8,79.2 L34.7,78.1 C34.7,77.4 35.1,77.4 34.3,76.7 C34.3,76.5 34.1,76.3 33.9,76.3 L33.9,76.3 C35.4,69.9 38.7,64.1 43.5,59.7 L44.6,59.7 C44.6,59.3 45,59.3 45,59 L45.4,59 L45.4,59.4 L45.4,59.4 C46.1,59 45.4,59 45.8,58.3 C45.1,58.3 45.4,58.3 45.1,57.9 C45.5,57.6 46,57.5 46.5,57.5 C46.5,57.9 46.1,57.9 46.5,58.2 C46.9,57.8 47.2,57.5 47.6,57.5 C47.8,57.5 48,57.7 48,57.9 L48,57.9 C47.7,58.2 47.3,58.3 46.9,58.3 C46.9,60.1 47.6,58.7 47.3,59.7 C47.7,59.7 48,59.3 48.4,59 C48.4,58.8 48.2,58.6 48,58.6 L48,58.6 C48,58.2 48.3,57.9 48.7,57.9 L49.4,57.9 C52.6,57.9 51.2,57.9 52.2,58.6 C52.6,58.6 52.9,58.6 52.9,59 C52.9,59.4 52.9,59.7 53.3,59.7 C53.7,59.7 53.7,59.7 54,60.1 C54,60.5 53.7,60.8 53.3,60.8 C52.6,60.8 52.9,60.4 52.6,60.4 C52.6,61.1 53.3,61.1 52.6,61.5 C51.9,61.9 52.6,61.5 52.2,61.5 L52.2,61.5 L52.2,62 C51.5,61.6 51.5,62 51.1,61.3 C50.7,60.6 50.7,60.9 50.4,60.9 L49.7,60.9 C50.1,60.5 50.4,60.9 50.8,60.5 L51.5,59.8 C51.5,59.4 51.5,59.8 51.1,59.4 C50.7,59 50.4,59 49.7,59 C49,59 49,60.1 48.6,60.1 L47.5,60.1 C47.5,60.8 48.2,60.1 48.2,61.2 C47.8,61.2 47.8,60.8 47.5,61.2 C47.1,61.6 47.5,61.6 47.5,61.6 L47.5,61.6 C47.1,61.6 47.5,61.6 46.8,61.2 L47.2,60.8 C46.6,60.9 46,61.2 45.4,61.5 C44.8,61.8 44.2,62.1 43.6,62.6 L43.6,63.7 C44.7,63.7 44.3,64.1 45.4,64.4 L46,64.4 C46,64.8 45.6,65.1 46,65.8 C46.4,66.5 46.7,65.4 46.7,64.7 C48.8,64.3 47.8,63.6 48.5,62.2 C48.5,61.8 48.9,61.8 48.9,61.5 L50,61.5 C50.4,61.5 50.4,61.9 50.7,61.9 C51,62 50.3,63 51,63 C51.7,63 51.4,62.6 52.1,62.3 C52.4,62.8 52.5,63.5 52.5,64.1 C53.9,64.8 53.2,65.2 52.9,66.2 C53.3,66.2 53.3,66.2 53.6,66.6 L53.6,67.7 C53,67.5 52.4,67.4 51.8,67.3 C52.2,66.6 52.5,66.6 52.9,65.9 C52.2,65.9 52.5,66.3 51.8,66.3 L50.7,66.3 L50.7,67 C50.3,66.6 50.3,66.3 49.3,66.6 C49.7,66.6 49.7,67 50,67 C50,67.7 50,67 49.6,67.7 C49.2,68.4 50.7,68.1 50.7,68.1 C50.7,68.8 50.3,68.8 49.6,68.8 C48.9,68.8 48.9,69.2 48.5,69.2 C48.5,68.5 48.5,69.2 48.9,68.5 C48.5,68.5 48.2,68.9 47.8,68.9 L47.8,68.9 C47.4,69.3 47.1,69.3 47.1,70 C46.6,70.1 46.1,70.3 45.7,70.7 L44.6,71.8 L44.6,71.8 C44.6,72.5 44.6,72.5 44.2,72.9 C43.8,73.3 43.5,73.3 43.1,73.6 C41.7,74.7 42.4,74.3 42.4,76.1 C42,76.1 42,76.1 41.7,75.7 C41.3,74.3 41.7,75 40.6,74.6 C39.5,74.2 39.5,75 39.2,75 C38.8,75 38.5,74.6 37.8,75 C37.1,75.4 37.1,75.4 36.7,76.1 C36.3,76.8 36.3,77.2 36.3,77.9 C36.3,79.7 38.1,80 38.4,79 C38.8,77.9 38.8,78.3 39.5,78.3 L39.5,79 C39.5,79.4 39.1,79.7 39.1,80.1 C39.8,80.5 39.8,79.7 40.5,80.5 C40.5,81.2 40.1,82.3 40.9,83 C41.6,83.7 41.6,83 42,83 C42.4,83 42.4,83.4 43.1,83.4 L43.5,83 C43.9,82.3 43.9,82.6 44.6,82.3 L45,82.3 C45,82.5 45.2,82.7 45.4,82.7 L45.4,82.7 C46.1,82 46.1,82.7 46.5,82.7 L47.2,82.7 C47.6,82.7 47.6,82.3 48.3,82.7 L48.7,82.7 C48.7,82.9 48.9,83.1 49.1,83.1 L49.1,83.1 C49.5,83.5 50,83.9 50.5,84.2 C51.2,84.6 51.2,83.8 52.3,84.9 C52.7,85.3 52.7,85.3 52.7,85.6 L52.7,86 C52.7,86.4 52.7,86.4 53.1,86.7 C53.5,87.1 54.2,87.1 54.5,87.4 C54.9,87.8 54.5,87.8 55.2,87.8 C55.9,87.8 55.9,87.8 56.6,88.5 C57.3,89.2 57,88.5 57.3,88.9 C57.7,89.4 57.7,90.1 57.3,90.7 C56.2,92.5 56.6,92.1 56.6,93.5 C56.6,94.2 56.2,96 55.5,96 C53,96.7 54.4,97.1 53.7,98.5 C53.3,98.9 53.3,98.9 53.3,99.2 C52.9,100.3 53.3,101 51.5,100.6 C51.5,101 51.5,100.6 51.9,101 C52.3,101.4 52.3,102.1 51.5,102.4 C50.8,102.8 51.1,102.4 51.1,103.1 C51.4,101.3 51.4,101.3 51.4,101.6 L51.4,101.6 L51.4,101.6 Z M44.6,58.4 L44.6,58.4 C45,58.4 45,58.4 45.3,58 L45.3,57.6 L45.3,57.6 L44.6,58.4 L44.6,58.4 Z M71.9,68 L71.9,68 C71.2,67.3 71.2,66.9 70.5,67.3 C70.5,67.7 70.5,67.7 70.9,68 C71.3,68.4 71.3,68.7 72,69.1 L72,69.1 C72.2,69.1 72.4,69.3 72.4,69.5 L72.4,69.5 C71.7,70.2 72.4,70.2 72,70.2 L72,70.2 C72,69.8 72,69.8 71.6,69.5 C71.2,69.1 71.2,69.1 70.9,69.1 C70.6,69.1 70.2,68.4 69.8,68 C69.4,67.6 69.4,68.4 69.1,68.4 L68,68.4 C67.6,69.1 68.4,68.4 67.3,69.1 C66.2,69.8 67.3,70.5 65.5,70.9 L65.1,70.9 C64.7,70.9 65.1,70.9 64.7,71.3 C64.3,71.7 64.7,71.7 65.1,71.7 C66.2,71.7 66.2,71.3 66.9,71 L69.8,71 C70.2,71.4 69.8,72.1 69.8,72.4 C69.8,72.8 70.9,72.8 71.2,73.1 C71.6,73.5 71.2,73.5 71.6,73.5 L72,73.5 C72.4,73.5 72.4,73.9 72.7,73.9 C73.1,72.5 72.7,72.8 74.5,73.2 C76.3,73.6 75.6,73.2 76.6,73.2 L77.7,73.2 C77.7,72.8 78.8,70.7 77.7,71.1 C77.3,71.1 77.7,71.5 77,71.1 C76.3,70.7 77,70.7 76.3,71.1 C75.6,71.5 75.2,71.5 74.9,70 C74.9,69.3 74.5,68.9 73.8,69.6 C73.8,70 74.2,70 74.2,70.3 L73.8,70.7 C73.4,71.1 73.8,71.1 73.4,71.1 C73.1,70.8 72.8,70.4 72.7,70 C72.3,69.3 72.3,69.6 72.3,68.9 C72.3,68 72,68.4 71.9,68 L71.9,68 L71.9,68 Z M82.5,90 L82.5,90 C82.1,90.4 82.1,90.7 81.8,91.1 C81.4,91.5 81.1,91.5 80.7,91.8 C80.3,92.2 81.1,92.5 80.3,93.2 C79.9,93.7 79.9,94.4 80.3,95 C81.4,95.7 81.7,93.6 81.7,92.9 C81.7,92.2 82.1,91.8 82.1,91.5 C82.9,91 83.2,90.7 82.5,90 L82.5,90 Z M81.1,67.3 L81.1,67.3 C81.1,68 81.5,68.7 82.2,69.1 L82.2,70.2 C82.6,70.6 82.9,70.9 83.6,70.6 C83.7,70.1 83.5,69.6 83.2,69.2 L83.2,69.2 L83.6,68.8 C83.2,68.8 82.2,68.1 82.2,67.4 L82.6,67 L83,66.6 C82.6,66.2 82.6,66.2 82.3,66.2 C81.8,66.2 81.4,67.3 81.1,67.3 L81.1,67.3 Z M77.2,67.6 L77.2,67.6 C76.8,67.2 76.8,66.9 76.1,66.9 C75.4,66.9 75.7,67.6 75.4,68 C75,68.4 75.4,68.4 75.4,68.7 L75.4,68.7 L75.4,69.1 C75.8,69.1 75.4,69.1 75.8,68.7 C76.2,68.3 77.2,68.3 77.6,68.3 C78,68.3 79,69 79.7,68.3 C79.7,67.6 78.6,67.2 78.3,66.9 C77.9,66.5 78.7,66.9 78.3,66.2 L77.9,66.2 L77.5,66.6 C77.5,67 77.9,66.6 77.5,67 C77.2,67.3 77.2,67.3 77.2,67.6 L77.2,67.6 Z M65.2,62.7 L65.2,62.7 C65.2,63.8 65.6,63.4 65.9,64.1 C66.3,64.8 65.5,64.1 65.5,64.8 L65.5,65.5 L66.6,65.5 C67.3,65.5 67.3,65.5 67.3,64.8 L66.2,63.7 C65.8,63 66.2,63.3 66.2,63 C66.2,62.6 66.2,62.6 65.8,62.3 C65.5,62 65.5,62.3 65.2,62.7 L65.2,62.7 Z" id="Shape" fill="#309891"></path>
            <path d="M67.7,48.1 L67.7,48.1 L66.6,47 L66.3,46.7 C65.5,47 64.6,48.4 64.1,49.2 L64.1,49.2 L65.2,50.3 L65.2,50.3 C66,49.8 67.4,48.9 67.7,48.1 L67.7,48.1 Z" id="Shape" fill="#FBB426"></path>
            <path d="M67.7,48.1 L67.7,48.1 L66.6,47 L66.3,46.7 C66,46.7 66,47 65.7,47 L67.4,48.7 C67.4,48.4 67.5,48.2 67.7,48.1 L67.7,48.1 Z" id="Shape" fill="#FFFFFF"></path>
            <path d="M69.4,52.8 L69.4,52.8 L68,51.4 L68,51.4 C67.2,51.7 66.3,53.1 65.8,53.9 L65.8,53.9 L66.9,55 L66.9,55 C67.7,54.5 69.1,53.7 69.4,52.8 L69.4,52.8 Z" id="Shape" fill="#FBB426"></path>
            <path d="M69.4,52.8 L69.4,52.8 L68,51.4 L68,51.4 C67.7,51.4 67.7,51.7 67.4,51.7 L69.1,53.4 C69.1,53.1 69.4,53.1 69.4,52.8 L69.4,52.8 Z" id="Shape" fill="#FFFFFF"></path>
            <path d="M70.1,45.3 L70.1,45.3 L71.5,46.7 L71.9,47.1 C71.5,48.2 69.8,49.2 68.7,49.9 L68.7,49.9 L67.3,48.5 L67.3,48.5 C67.7,47.1 68.8,45.9 70.1,45.3 L70.1,45.3 Z" id="Shape" fill="#FBB426"></path>
            <path d="M70.1,45.3 L70.1,45.3 L71.5,46.7 L71.9,47.1 C71.9,47.5 71.5,47.5 71.5,47.8 L69.4,45.7 C69.4,45.3 69.8,45.3 70.1,45.3 L70.1,45.3 Z" id="Shape" fill="#FFFFFF"></path>
            <path d="M64.1,36.1 L64.1,36.1 L65.5,37.5 L65.9,37.9 C65.5,39 63.8,40 62.7,40.7 L62.7,40.7 L61.3,39.3 L61.3,39.3 C61.7,37.9 62.7,36.7 64.1,36.1 L64.1,36.1 Z" id="Shape" fill="#FBB426"></path>
            <path d="M64.1,43.2 L64.1,43.2 L65.5,44.6 L65.9,45 C65.9,45.4 65.5,45.4 65.5,45.7 L63.4,43.6 C63.4,43.2 63.7,43.2 64.1,43.2 L64.1,43.2 Z" id="Shape" fill="#FFFFFF"></path>
            <path d="M59.5,71.9 L63.4,77.2 L64.5,75.8 L62.4,70.1 L63.1,69.4 C64.2,68.3 69.1,64.1 73.4,60.5 L85.8,78.2 L86.9,77.1 L79.8,55.1 C82.6,52.6 84.8,50.9 85.5,50.1 C87.3,48 89,45.1 87.6,42.7 C85,41.4 82.2,43.2 80,45 C79.3,45.7 77.5,47.8 75,50.7 L53,43.6 L52.3,44.7 L70.1,57 C66.6,61.2 62.3,66.2 61.2,67.3 C60.1,68.4 60.8,68 60.5,68 L54.8,65.9 L53.4,67 L58.7,70.9 C58.1,71.9 58.4,72.3 59.5,71.9 L59.5,71.9 Z" id="Shape" fill="#FFFFFF"></path>
            <polygon id="Shape" fill="#C8CACB" points="59.5 71.9 63.4 77.2 63.8 76.8 60.3 71.5"></polygon>
            <polygon id="Shape" fill="#C8CACB" points="53.8 66.9 53.8 66.9 58.8 70.8 59.2 70.4"></polygon>
            <polygon id="Shape" fill="#C8CACB" points="58.2 48.1 68 62.1 68.3 61.8 58.5 47.8"></polygon>
            <path d="M52.8,44.3 L52.4,44.7 L70.1,57 L70.8,56.3 L52.8,44.3 L52.8,44.3 Z" id="Shape" fill="#C8CACB"></path>
            <path d="M68.8,34.9 C68.5,34.6 68.2,34.6 68,34.3 L67.7,34.9 C68,34.9 68,35.2 68.3,35.2 C68.6,35.2 68.6,35.5 68.6,35.8 L69.2,35.5 C69.1,35.2 69.1,34.9 68.8,34.9 L68.8,34.9 Z M67.7,34.4 L67.7,34.4 C67.2,34.4 66.7,34.5 66.3,34.7 C66.7,34.7 67.1,34.8 67.4,35 L67.7,34.4 L67.7,34.4 Z M69.1,36 L69.1,36 C69.3,36.3 69.4,36.7 69.4,37.1 C69.6,36.7 69.7,36.2 69.7,35.7 L69.1,36 L69.1,36 Z" id="Shape" fill="#24BBB1"></path>
            <path d="M55.7,75.4 L55.7,75.4 L56.1,75 L56.1,75 L55.7,74.6 L55.7,74.6 L55.7,75.4 L55.7,75.4 Z M92.9,75.1 L92.9,75.1 L92.9,78.3 L92.9,78.3 L93.6,78.7 L93.6,78.7 L93.6,74.5 C93.6,74.4 92.9,75.1 92.9,75.1 L92.9,75.1 Z M90.7,79.3 L90.7,79.3 L90.3,79.7 L90.3,79.7 L90.7,80.1 L90.7,80.1 L90.7,79.3 L90.7,79.3 Z M87.5,83.2 L87.5,83.2 L87.1,83.6 L87.1,83.6 L87.1,84.3 L87.1,84.3 L87.5,83.2 L87.5,83.2 Z M82.6,84.3 L82.2,84.3 L82.2,85 L82.2,85 L82.6,84.3 L82.6,84.3 Z M77.3,84.3 L76.9,84.3 L77.3,85 L77.3,85 L77.3,84.3 L77.3,84.3 Z M72,85.7 L72,85.7 L71.6,86.1 L71.6,86.1 L72,86.5 L72,86.5 L72,85.7 L72,85.7 Z M67.7,89.2 L67.7,89.2 L67.3,89.6 L67.3,89.6 L67.7,90 L67.7,90 L67.7,89.2 L67.7,89.2 Z M64.2,92.8 L64.2,92.8 L63.5,93.2 L63.5,93.2 L63.9,93.9 L63.9,93.9 C63.8,93.9 64.2,92.8 64.2,92.8 L64.2,92.8 Z M59.6,95.3 L59.2,95.3 L59.2,96 L59.2,96 L59.6,95.3 L59.6,95.3 Z M54.6,95.6 L54.2,95.6 L53.9,96 L53.9,96 L54.6,95.6 L54.6,95.6 Z M50.4,92.8 L50.4,92.8 L50,92.4 L50,92.4 L49.3,92.8 L50.4,92.8 L50.4,92.8 Z M48.2,88.2 L48.2,88.2 C47.8,87.2 47.8,86 48.2,85 L47.5,85 C47.1,86.2 47.1,87.4 47.5,88.5 L48.2,88.2 L48.2,88.2 Z M48.9,83.2 L48.9,83.2 C49.4,82.2 50,81.2 50.7,80.4 L50.4,80 C49.6,80.8 49,81.8 48.6,82.8 L48.9,83.2 L48.9,83.2 Z M51.8,79 L51.8,79 L52.2,78.6 L52.2,78.6 L51.8,78.2 L51.8,78.2 L51.8,79 L51.8,79 Z" id="Shape" fill="#FFFFFF"></path>
        </g>
    </g>
</svg>