<svg id="Layer_1" data-name="Layer 1" xmlns="http://www.w3.org/2000/svg" viewBox="0 0 71.28 49.85"><title>sm_email</title><g id="Layer_6" data-name="Layer 6"><path d="M65.89,50.56H7.29C3.8,50.56,1,47.45,1,43.63v-36C1,3.82,3.8.71,7.29.71h58.6c3.49,0,6.34,3.11,6.34,6.93v36C72.23,47.45,69.39,50.56,65.89,50.56ZM7.29,6.86a1.11,1.11,0,0,0-1.17.78v36a1.11,1.11,0,0,0,1.17.78h58.6a1.11,1.11,0,0,0,1.17-.78v-36a1.11,1.11,0,0,0-1.17-.78H7.29Z" transform="translate(-0.95 -0.71)"/><polygon points="67.38 4.89 35.61 23.42 4.46 4.9 0.98 9.53 35.54 30.07 70.82 9.54 67.38 4.89"/></g></svg>